<svg xmlns="http://www.w3.org/2000/svg" viewBox="0 0 1440 320">
<path fill="#00cba9" fill-opacity="1" d="M0,64L40,64C80,64,160,64,240,58.7C320,53,400,43,480,42.7C560,43,640,53,720,90.7C800,128,880,192,960,186.7C1040,181,1120,107,1200,69.3C1280,32,1360,32,1400,32L1440,32L1440,320L1400,320C1360,320,1280,320,1200,320C1120,320,1040,320,960,320C880,320,800,320,720,320C640,320,560,320,480,320C400,320,320,320,240,320C160,320,80,320,40,320L0,320Z"></path>
<path fill="#0099ff" transform="translate(0, 75)" fill-opacity="1" d="M0,160L40,144C80,128,160,96,240,85.3C320,75,400,85,480,96C560,107,640,117,720,138.7C800,160,880,192,960,186.7C1040,181,1120,139,1200,128C1280,117,1360,139,1400,149.3L1440,160L1440,320L1400,320C1360,320,1280,320,1200,320C1120,320,1040,320,960,320C880,320,800,320,720,320C640,320,560,320,480,320C400,320,320,320,240,320C160,320,80,320,40,320L0,320Z">
</path>
</svg>